HIERARCHY
ROOT Bip01
{
  OFFSET 15.7446 31.5610 57.6474
  CHANNELS 6 Xposition Yposition Zposition Zrotation Xrotation Yrotation
  JOINT Bip01_Footsteps
  {
    OFFSET 53.2821 -0.0001 8.1953
    CHANNELS 6 Xposition Yposition Zposition Zrotation Xrotation Yrotation
    End Site
    {
      OFFSET 0 0 0
    }
  }
  JOINT b_Hips
  {
    OFFSET 0.0000 0.0000 0.0000
    CHANNELS 6 Xposition Yposition Zposition Zrotation Xrotation Yrotation
    JOINT b_Spine
    {
      OFFSET 10.4409 -1.6220 0.0000
      CHANNELS 6 Xposition Yposition Zposition Zrotation Xrotation Yrotation
      JOINT b_Spine1
      {
        OFFSET 8.8514 -0.0090 -0.0000
        CHANNELS 6 Xposition Yposition Zposition Zrotation Xrotation Yrotation
        JOINT b_Spine2
        {
          OFFSET 11.3035 -0.0088 0.0000
          CHANNELS 6 Xposition Yposition Zposition Zrotation Xrotation Yrotation
          JOINT b_Spine3
          {
            OFFSET 11.0297 -0.0113 0.0000
            CHANNELS 6 Xposition Yposition Zposition Zrotation Xrotation Yrotation
            JOINT b__Neck
            {
              OFFSET 14.9480 -3.1935 0.0000
              CHANNELS 6 Xposition Yposition Zposition Zrotation Xrotation Yrotation
              JOINT b__Neck1
              {
                OFFSET 5.4958 -0.0043 0.0000
                CHANNELS 6 Xposition Yposition Zposition Zrotation Xrotation Yrotation
                JOINT b__Neck2
                {
                  OFFSET 5.5266 -0.0049 -0.0000
                  CHANNELS 6 Xposition Yposition Zposition Zrotation Xrotation Yrotation
                  JOINT b_Head
                  {
                    OFFSET 6.1093 -0.0000 0.0000
                    CHANNELS 6 Xposition Yposition Zposition Zrotation Xrotation Yrotation
                    JOINT Bip01_HeadNub
                    {
                      OFFSET 28.6688 0.0000 0.0000
                      CHANNELS 6 Xposition Yposition Zposition Zrotation Xrotation Yrotation
                      End Site
                      {
                        OFFSET 0 0 0
                      }
                    }
                    JOINT Dog_Jaw
                    {
                      OFFSET 0.6075 2.3575 -0.0000
                      CHANNELS 6 Xposition Yposition Zposition Zrotation Xrotation Yrotation
                      End Site
                      {
                        OFFSET 0 0 0
                      }
                    }
                  }
                }
              }
            }
            JOINT b_LeftClav
            {
              OFFSET 10.4683 2.1257 3.5190
              CHANNELS 6 Xposition Yposition Zposition Zrotation Xrotation Yrotation
              JOINT b_LeftArm
              {
                OFFSET 7.3453 0.0000 0.0000
                CHANNELS 6 Xposition Yposition Zposition Zrotation Xrotation Yrotation
                JOINT b_LeftForeArm
                {
                  OFFSET 23.3863 -0.0000 0.0000
                  CHANNELS 6 Xposition Yposition Zposition Zrotation Xrotation Yrotation
                  JOINT b_LeftHand
                  {
                    OFFSET 21.5040 0.0000 -0.0000
                    CHANNELS 6 Xposition Yposition Zposition Zrotation Xrotation Yrotation
                    JOINT b__LeftFinger
                    {
                      OFFSET 1.5926 6.2126 -0.0138
                      CHANNELS 6 Xposition Yposition Zposition Zrotation Xrotation Yrotation
                      JOINT Bip01_L_Finger0Nub
                      {
                        OFFSET 23.3657 0.0000 0.0000
                        CHANNELS 6 Xposition Yposition Zposition Zrotation Xrotation Yrotation
                        End Site
                        {
                          OFFSET 0 0 0
                        }
                      }
                    }
                  }
                }
                JOINT Dog_LeftArmor002
                {
                  OFFSET 4.2035 4.4457 12.7354
                  CHANNELS 6 Xposition Yposition Zposition Zrotation Xrotation Yrotation
                  End Site
                  {
                    OFFSET 0 0 0
                  }
                }
              }
            }
            JOINT b_RightClav
            {
              OFFSET 10.4683 2.1257 -3.5189
              CHANNELS 6 Xposition Yposition Zposition Zrotation Xrotation Yrotation
              JOINT b_RightArm
              {
                OFFSET 7.3453 0.0000 -0.0000
                CHANNELS 6 Xposition Yposition Zposition Zrotation Xrotation Yrotation
                JOINT b_RightForeArm
                {
                  OFFSET 23.3863 0.0000 0.0000
                  CHANNELS 6 Xposition Yposition Zposition Zrotation Xrotation Yrotation
                  JOINT b_RightHand
                  {
                    OFFSET 21.5040 0.0000 0.0000
                    CHANNELS 6 Xposition Yposition Zposition Zrotation Xrotation Yrotation
                    JOINT b_RightFinger
                    {
                      OFFSET 1.5926 6.2126 0.0138
                      CHANNELS 6 Xposition Yposition Zposition Zrotation Xrotation Yrotation
                      JOINT Bip01_R_Finger0Nub
                      {
                        OFFSET 23.3657 0.0000 0.0000
                        CHANNELS 6 Xposition Yposition Zposition Zrotation Xrotation Yrotation
                        End Site
                        {
                          OFFSET 0 0 0
                        }
                      }
                    }
                  }
                }
                JOINT Dog_RightArmor002
                {
                  OFFSET 4.2034 4.4457 -12.7351
                  CHANNELS 6 Xposition Yposition Zposition Zrotation Xrotation Yrotation
                  End Site
                  {
                    OFFSET 0 0 0
                  }
                }
              }
            }
          }
        }
      }
    }
    JOINT b_Tail001
    {
      OFFSET -4.7889 3.8598 0.8608
      CHANNELS 6 Xposition Yposition Zposition Zrotation Xrotation Yrotation
      JOINT b_Tail002
      {
        OFFSET 4.2212 0.0000 -0.0000
        CHANNELS 6 Xposition Yposition Zposition Zrotation Xrotation Yrotation
        JOINT b_Tail003
        {
          OFFSET 4.9750 0.0000 -0.0000
          CHANNELS 6 Xposition Yposition Zposition Zrotation Xrotation Yrotation
          JOINT b_Tail004
          {
            OFFSET 4.7171 -0.0000 0.0000
            CHANNELS 6 Xposition Yposition Zposition Zrotation Xrotation Yrotation
            JOINT b_Tail005
            {
              OFFSET 9.7173 -0.0000 -0.0001
              CHANNELS 6 Xposition Yposition Zposition Zrotation Xrotation Yrotation
              JOINT b_Tail006
              {
                OFFSET 8.2617 0.0001 0.0000
                CHANNELS 6 Xposition Yposition Zposition Zrotation Xrotation Yrotation
                JOINT b_Tail007
                {
                  OFFSET 9.7599 -0.0001 0.0000
                  CHANNELS 6 Xposition Yposition Zposition Zrotation Xrotation Yrotation
                  JOINT b_Tail008
                  {
                    OFFSET 11.1530 0.0000 -0.0000
                    CHANNELS 6 Xposition Yposition Zposition Zrotation Xrotation Yrotation
                    JOINT b_Tail009
                    {
                      OFFSET 10.3039 0.0000 0.0000
                      CHANNELS 6 Xposition Yposition Zposition Zrotation Xrotation Yrotation
                      End Site
                      {
                        OFFSET 0 0 0
                      }
                    }
                  }
                }
              }
            }
          }
        }
      }
    }
    JOINT Dog_LeftTail001
    {
      OFFSET -11.9878 -1.7857 10.1900
      CHANNELS 6 Xposition Yposition Zposition Zrotation Xrotation Yrotation
      JOINT Dog_LeftTail002
      {
        OFFSET 8.4424 0.0000 0.0000
        CHANNELS 6 Xposition Yposition Zposition Zrotation Xrotation Yrotation
        JOINT Dog_LeftTail003
        {
          OFFSET 9.9501 0.0000 -0.0000
          CHANNELS 6 Xposition Yposition Zposition Zrotation Xrotation Yrotation
          JOINT Dog_LeftTail004
          {
            OFFSET 9.4342 0.0000 -0.0000
            CHANNELS 6 Xposition Yposition Zposition Zrotation Xrotation Yrotation
            JOINT Dog_LeftTail005
            {
              OFFSET 9.7173 0.0001 0.0001
              CHANNELS 6 Xposition Yposition Zposition Zrotation Xrotation Yrotation
              JOINT Dog_LeftTail006
              {
                OFFSET 8.2618 -0.0000 -0.0000
                CHANNELS 6 Xposition Yposition Zposition Zrotation Xrotation Yrotation
                JOINT Dog_LeftTail007
                {
                  OFFSET 9.7599 0.0000 0.0000
                  CHANNELS 6 Xposition Yposition Zposition Zrotation Xrotation Yrotation
                  JOINT Dog_LeftTail008
                  {
                    OFFSET 11.1529 -0.0001 -0.0001
                    CHANNELS 6 Xposition Yposition Zposition Zrotation Xrotation Yrotation
                    JOINT Dog_LeftTail009
                    {
                      OFFSET 10.3039 -0.0000 0.0000
                      CHANNELS 6 Xposition Yposition Zposition Zrotation Xrotation Yrotation
                      End Site
                      {
                        OFFSET 0 0 0
                      }
                    }
                  }
                }
              }
            }
          }
        }
      }
    }
    JOINT b_LeftLegUpper
    {
      OFFSET -0.0000 0.0000 9.9422
      CHANNELS 6 Xposition Yposition Zposition Zrotation Xrotation Yrotation
      JOINT b_LeftLeg
      {
        OFFSET 25.9795 0.0000 -0.0000
        CHANNELS 6 Xposition Yposition Zposition Zrotation Xrotation Yrotation
        JOINT b_LeftLeg1
        {
          OFFSET 21.2087 0.0000 -0.0000
          CHANNELS 6 Xposition Yposition Zposition Zrotation Xrotation Yrotation
          JOINT b_LeftAnkle
          {
            OFFSET 10.4341 -0.0000 0.0000
            CHANNELS 6 Xposition Yposition Zposition Zrotation Xrotation Yrotation
            JOINT b_LeftToe
            {
              OFFSET 5.6676 6.5983 0.0000
              CHANNELS 6 Xposition Yposition Zposition Zrotation Xrotation Yrotation
              JOINT Bip01_L_Toe0Nub
              {
                OFFSET 8.6279 0.0000 -0.0000
                CHANNELS 6 Xposition Yposition Zposition Zrotation Xrotation Yrotation
                End Site
                {
                  OFFSET 0 0 0
                }
              }
            }
            JOINT b_LeftToe002
            {
              OFFSET 5.6741 -2.3619 -0.5306
              CHANNELS 6 Xposition Yposition Zposition Zrotation Xrotation Yrotation
              End Site
              {
                OFFSET 0 0 0
              }
            }
          }
        }
      }
      JOINT Dog_LeftArmor001
      {
        OFFSET -2.6287 -3.4254 -3.1462
        CHANNELS 6 Xposition Yposition Zposition Zrotation Xrotation Yrotation
        End Site
        {
          OFFSET 0 0 0
        }
      }
    }
    JOINT b_RightLegUpper
    {
      OFFSET 0.0000 -0.0000 -9.9422
      CHANNELS 6 Xposition Yposition Zposition Zrotation Xrotation Yrotation
      JOINT b_RightLeg
      {
        OFFSET 25.9795 0.0000 0.0000
        CHANNELS 6 Xposition Yposition Zposition Zrotation Xrotation Yrotation
        JOINT b_RightLeg1
        {
          OFFSET 21.2087 0.0000 0.0000
          CHANNELS 6 Xposition Yposition Zposition Zrotation Xrotation Yrotation
          JOINT b_RightAnkle
          {
            OFFSET 10.4341 -0.0000 -0.0000
            CHANNELS 6 Xposition Yposition Zposition Zrotation Xrotation Yrotation
            JOINT b_RightToe
            {
              OFFSET 5.6676 6.5983 -0.0000
              CHANNELS 6 Xposition Yposition Zposition Zrotation Xrotation Yrotation
              JOINT Bip01_R_Toe0Nub
              {
                OFFSET 8.6279 -0.0000 0.0000
                CHANNELS 6 Xposition Yposition Zposition Zrotation Xrotation Yrotation
                End Site
                {
                  OFFSET 0 0 0
                }
              }
            }
            JOINT b_RightToe002
            {
              OFFSET 5.6741 -2.3620 0.5304
              CHANNELS 6 Xposition Yposition Zposition Zrotation Xrotation Yrotation
              End Site
              {
                OFFSET 0 0 0
              }
            }
          }
        }
      }
      JOINT Dog_RightArmor001
      {
        OFFSET -2.6288 -3.4254 3.1460
        CHANNELS 6 Xposition Yposition Zposition Zrotation Xrotation Yrotation
        End Site
        {
          OFFSET 0 0 0
        }
      }
    }
  }
}
MOTION
Frames: 4
Frame Time: 0.00833333
-26.7937 49.7707 89.9474 85.5901 -21.0629 176.352 53.2821 -6.35e-05 8.19533 -90 -81.2558 -180 0 0 0 -89.9999 -4.1675e-14 -90 10.4409 -1.622 1.78e-05 3.37627 -1.01129 -5.30228 8.8514 -0.0089989 0 -4.03679 1.5979 -3.73412 11.3035 -0.0087814 -1.77636e-15 -1.2478 2.38529 -2.8864 11.0297 -0.0113029 1.77636e-15 3.30777 1.35803 -5.89158 14.948 -3.19349 8.6e-06 -13.5164 14.0137 -6.29353 5.49578 -0.0042877 0 -2.96103 -0.0165988 0.661643 5.52657 -0.0048637 0 2.34867 3.16812 1.55008 6.10934 -1.42109e-14 0 59.6482 -9.11428 16.6026 28.6688 0 -3.55271e-15 3.18055e-15 -5.96354e-16 8.44835e-16 0.607494 2.35752 -7.6e-06 -156.427 -0.000147608 180 10.4683 2.1257 3.51896 -162.527 20.3481 -93.8492 7.34534 0 1.9e-06 -16.5963 -79.0408 69.2855 23.3863 -1.9e-06 1e-06 4.52082 -0.710179 -1.18944 21.504 0 0 -49.6438 -4.13148 4.23034 1.59262 6.21256 -0.0138378 13.8354 5.47931 -0.896111 23.3657 0 1e-06 2.38542e-15 0 3.97569e-15 4.20345 4.44573 12.7354 172.377 0.21838 -87.1877 10.4683 2.12572 -3.51895 -168.793 9.29093 103.034 7.34534 0 -1.9e-06 -37.9653 73.079 -49.5701 23.3863 1.9e-06 3.55271e-15 -74.7774 0 -1.27222e-14 21.504 3.8e-06 1e-06 28.7823 22.938 -6.02291 1.59262 6.21257 0.0138388 -4.75618 -13.8507 -2.92815 23.3657 3.55271e-15 1e-06 180 3.18055e-14 -4.77083e-15 4.20337 4.4457 -12.7351 172.377 -0.218352 87.1876 -4.78895 3.85983 0.86083 126.449 6.16398 7.55447 4.22117 3.815e-05 -5.7e-06 -10.4945 11.3783 -25.574 4.97505 3.8e-06 -6.7e-06 -10.7819 22.016 -5.33528 4.7171 -1.145e-05 2.86e-05 -7.95139e-16 -3.18055e-15 1.59028e-15 9.71734 -4.2e-05 -5.72e-05 1.98785e-15 0 -7.95139e-16 8.26175 8.01e-05 5.7e-06 1.98785e-15 0 -7.95139e-16 9.75986 -6.48e-05 2.86e-05 1.59028e-15 0 -7.95139e-16 11.153 2.67e-05 -2.1e-05 -1.19271e-15 0 7.95139e-16 10.3039 1.14e-05 4.2e-05 -1.19271e-15 0 7.95139e-16 -11.9878 -1.78568 10.19 170.606 3.62573 1.11034 8.44238 1.53e-05 4.2e-05 -4.77083e-15 0 3.18055e-15 9.95005 7.6e-06 -2.86e-05 -1.59028e-15 0 3.18055e-15 9.43418 0 -4.58e-05 -1.59028e-15 0 6.36111e-15 9.71733 6.87e-05 0.0001106 -3.18055e-15 0 -0 8.26175 -2.29e-05 -4.77e-05 -3.18055e-15 7.95139e-16 -3.18055e-15 9.75994 2.86e-05 3.05e-05 -3.18055e-15 -7.95139e-16 -0 11.1529 -7.25e-05 -5.91e-05 4.41391e-32 7.95139e-16 -3.18055e-15 10.3039 -7.6e-06 0 -1.59028e-15 1.59028e-15 -3.18055e-15 -1.14e-05 1.53e-05 9.94222 -109.242 27.7612 -171.9 25.9795 1e-06 7.10543e-15 -38.961 -0.26948 -1.18036 21.2087 1.9e-06 -1e-06 91.3247 9.24525 -16.3382 10.4341 -1.9e-06 1e-06 -21.255 -3.30271 4.00203 5.66763 6.59832 0 -164.907 -4.26434 -177.876 8.62785 0 0 -180 -3.18055e-14 1.59028e-15 5.67414 -2.36194 -0.530567 -75.8081 4.38708 5.33411 -2.62874 -3.42539 -3.14618 29.7499 1.82752 90.2264 1.53e-05 -1.53e-05 -9.94222 -88.5112 -23.0324 170.706 25.9795 -1.42109e-14 1e-06 -58.3753 -1.09245 2.3566 21.2087 -7.10543e-15 1.9e-06 90.4312 -13.7111 27.3366 10.4341 -1.9e-06 -1e-06 -5.36293 -13.4257 -9.65301 5.66763 6.59831 3.55271e-15 80.1213 -2.68229 1.78725 8.62785 0 0 -3.18055e-15 1.59028e-15 1.59028e-15 5.67412 -2.36198 0.530355 -75.808 -4.38692 -5.33418 -2.62878 -3.42545 3.14601 29.7498 -1.82753 -90.2266
-27.0946 49.9712 87.3628 86.537 -22.329 177.287 53.2821 -6.35e-05 8.19533 -90 -81.2558 -180 0 0 0 -89.9999 -4.1675e-14 -90 10.4409 -1.622 1.78e-05 4.27796 -1.04338 -5.51756 8.8514 -0.0089989 -3.55271e-15 -5.89877 2.21566 -4.35537 11.3035 -0.0087814 0 -2.1337 2.55061 -3.17721 11.0297 -0.0113029 1.77636e-15 3.24855 1.43548 -6.01236 14.948 -3.19349 8.6e-06 -12.6654 12.6661 -6.16513 5.49578 -0.0042877 7.10543e-15 -2.68579 0.369619 0.704857 5.52657 -0.0048637 0 2.37857 3.94555 1.4212 6.10934 -1.42109e-14 7.10543e-15 59.6636 -8.95081 16.035 28.6688 -7.10543e-15 0 -9.54166e-15 3.10601e-17 3.35449e-16 0.607494 2.35752 -7.6e-06 -156.427 -0.000147608 180 10.4683 2.1257 3.51896 -164.149 18.3564 -94.0166 7.34534 0 1.9e-06 -4.38835 -79.6231 83.013 23.3863 -1.9e-06 1e-06 5.35518 -0.727426 -1.17898 21.504 -7.10543e-15 3.55271e-15 -37.6161 -3.15915 4.99789 1.59262 6.21256 -0.0138378 9.02501 10.8677 -3.50191 23.3657 0 1e-06 1.98785e-16 0 4.96962e-17 4.20345 4.44573 12.7354 172.377 0.21838 -87.1877 10.4683 2.12572 -3.51895 -170.167 10.0505 104.629 7.34534 0 -1.9e-06 -24.079 77.872 -64.7417 23.3863 1.9e-06 3.55271e-15 -74.2187 0 -3.18055e-15 21.504 3.8e-06 1e-06 18.226 24.6028 1.45753 1.59262 6.21257 0.0138388 -5.59687 -11.1702 -3.06786 23.3657 -3.55271e-15 1e-06 180 6.67916e-14 2.14687e-14 4.20337 4.4457 -12.7351 172.377 -0.218352 87.1876 -4.78895 3.85983 0.86083 128.234 5.52431 8.7932 4.22117 3.815e-05 -5.7e-06 -14.0077 11.2663 -25.2745 4.97505 3.8e-06 -6.7e-06 -9.21587 21.8294 -4.34111 4.7171 -1.145e-05 2.86e-05 -2.78299e-15 3.18055e-15 1.59028e-15 9.71734 -4.2e-05 -5.72e-05 -2.5842e-15 0 -1.59028e-15 8.26175 8.01e-05 5.7e-06 3.97569e-16 3.18055e-15 1.19271e-15 9.75986 -6.48e-05 2.86e-05 5.96354e-16 6.36111e-15 1.98785e-15 11.153 2.67e-05 -2.1e-05 2.98177e-15 3.18055e-15 -1.19271e-15 10.3039 1.14e-05 4.2e-05 -2.78299e-15 0 1.19271e-15 -11.9878 -1.78568 10.19 170.606 3.62573 1.11034 8.44238 1.53e-05 4.2e-05 1.59028e-15 1.59028e-15 -3.18055e-15 9.95005 7.6e-06 -2.86e-05 -0 0 -0 9.43418 0 -4.58e-05 8.82781e-32 -7.95139e-16 6.36111e-15 9.71733 6.87e-05 0.0001106 1.59028e-15 7.95139e-16 -3.18055e-15 8.26175 -2.29e-05 -4.77e-05 1.59028e-15 7.95139e-16 -0 9.75994 2.86e-05 3.05e-05 1.59028e-15 7.95139e-16 3.18055e-15 11.1529 -7.25e-05 -5.91e-05 1.59028e-15 0 -0 10.3039 -7.6e-06 0 4.41391e-32 -7.95139e-16 3.18055e-15 -1.14e-05 1.53e-05 9.94222 -108.636 26.6203 -171.923 25.9795 1e-06 -7.10543e-15 -41.9942 -0.206637 -1.19296 21.2087 1.9e-06 -1e-06 92.7747 8.81306 -15.2117 10.4341 -1.9e-06 1e-06 -21.1435 -3.29492 4.00844 5.66763 6.59832 7.10543e-15 -164.632 -4.04633 -177.051 8.62785 0 0 -180 -2.06736e-14 6.36111e-15 5.67414 -2.36194 -0.530567 -75.8081 4.38708 5.33411 -2.62874 -3.42539 -3.14618 29.7499 1.82752 90.2264 1.53e-05 -1.53e-05 -9.94222 -90.1331 -20.0342 169.426 25.9795 0 1e-06 -61.9495 -1.23729 2.28391 21.2087 7.10543e-15 1.9e-06 85.4875 -15.119 26.4021 10.4341 -1.9e-06 -1e-06 -6.11951 -10.493 -9.17384 5.66763 6.59831 0 80.8296 -1.83806 0.760694 8.62785 0 3.55271e-15 -1.10348e-32 -3.97569e-16 -1.59028e-15 5.67412 -2.36198 0.530356 -75.808 -4.38692 -5.33418 -2.62878 -3.42545 3.14601 29.7498 -1.82753 -90.2266
-27.274 50.3112 84.8386 87.4392 -23.3039 178.597 53.2821 -6.35e-05 8.19533 -90 -81.2558 -180 0 0 0 -89.9999 -4.1675e-14 -90 10.4409 -1.622 1.78e-05 4.86369 -0.983831 -5.94897 8.8514 -0.0089989 -3.55271e-15 -7.62541 2.66606 -4.74554 11.3035 -0.0087814 -3.55271e-15 -2.87404 2.60192 -3.3094 11.0297 -0.0113029 3.55271e-15 3.12857 1.45533 -5.94887 14.948 -3.19349 8.6e-06 -12.1398 10.6234 -6.01524 5.49578 -0.0042877 0 -2.56965 0.90097 0.746447 5.52657 -0.0048637 0 2.37415 4.88217 1.28844 6.10934 -1.42109e-14 0 59.5795 -8.64336 14.8399 28.6688 -7.10543e-15 0 -1.27222e-14 -1.98785e-16 1.98785e-16 0.607494 2.35752 -7.6e-06 -156.427 -0.000147608 180 10.4683 2.1257 3.51896 -165.181 15.4005 -95.5163 7.34534 -7.10543e-15 1.9e-06 4.0119 -80.0197 94.071 23.3863 -1.9e-06 1e-06 3.46976 -0.68824 -1.20227 21.504 0 0 -21.5418 -1.6488 5.67663 1.59262 6.21256 -0.0138378 1.68015 17.6439 -5.95555 23.3657 0 1e-06 -1.98785e-16 3.18055e-15 7.95139e-16 4.20345 4.44573 12.7354 172.377 0.21838 -87.1877 10.4683 2.12572 -3.51895 -171.41 9.58773 105.977 7.34534 0 -1.9e-06 -5.16473 80.6118 -83.8669 23.3863 1.9e-06 1.77636e-15 -72.3408 1.59028e-14 -7.95139e-15 21.504 3.8e-06 1e-06 3.78369 24.0258 9.91385 1.59262 6.21257 0.0138388 -7.52653 -8.50509 -2.77458 23.3657 -1.55431e-15 1e-06 180 -2.55935e-14 1.01877e-14 4.20337 4.4457 -12.7351 172.377 -0.218352 87.1876 -4.78895 3.85983 0.86083 131.234 5.08129 9.3773 4.22117 3.815e-05 -5.7e-06 -16.2337 12.749 -23.4607 4.97505 3.8e-06 -6.7e-06 -7.83879 21.6605 -3.49466 4.7171 -1.145e-05 2.86e-05 1.98785e-16 -3.18055e-15 -0 9.71734 -4.2e-05 -5.72e-05 2.98177e-15 0 -3.97569e-16 8.26175 8.01e-05 5.7e-06 3.18055e-15 -3.18055e-15 -1.98785e-15 9.75986 -6.48e-05 2.86e-05 3.37934e-15 0 -7.95139e-16 11.153 2.67e-05 -2.1e-05 2.5842e-15 3.18055e-15 -3.18055e-15 10.3039 1.14e-05 4.2e-05 7.55382e-15 -3.18055e-15 7.95139e-16 -11.9878 -1.78568 10.19 170.606 3.62573 1.11034 8.44238 1.53e-05 4.2e-05 -0 0 6.36111e-15 9.95005 7.6e-06 -2.86e-05 1.59028e-15 -3.97569e-16 -0 9.43418 0 -4.58e-05 -0 -3.97569e-16 -0 9.71733 6.87e-05 0.0001106 -1.59028e-15 -7.95139e-16 3.18055e-15 8.26175 -2.29e-05 -4.77e-05 1.59028e-15 -7.95139e-16 3.18055e-15 9.75994 2.86e-05 3.05e-05 4.41391e-32 -7.95139e-16 3.18055e-15 11.1529 -7.25e-05 -5.91e-05 8.82781e-32 -1.59028e-15 3.18055e-15 10.3039 -7.6e-06 7.10543e-15 4.41391e-32 -7.95139e-16 3.18055e-15 -1.14e-05 1.53e-05 9.94222 -108.004 25.2844 -172.188 25.9795 1e-06 0 -45.0193 -0.143384 -1.2022 21.2087 1.9e-06 -1e-06 93.4234 8.48614 -13.7231 10.4341 -1.9e-06 1e-06 -20.372 -3.24064 4.05242 5.66763 6.59832 3.55271e-15 -165.675 -4.95963 -177.754 8.62785 0 -3.55271e-15 -180 -4.37326e-14 1.43125e-14 5.67414 -2.36194 -0.530567 -75.8081 4.38708 5.33411 -2.62874 -3.42539 -3.14618 29.7499 1.82752 90.2264 1.53e-05 -1.53e-05 -9.94222 -91.9719 -17.1197 168.619 25.9795 0 1e-06 -64.5916 -1.34129 2.22445 21.2087 0 1.9e-06 80.0127 -16.4717 25.3976 10.4341 -1.9e-06 -1e-06 -6.84955 -7.14587 -8.63159 5.66763 6.59831 0 81.83 -1.54619 0.207743 8.62785 0 3.55271e-15 -3.97569e-16 -5.96354e-16 1.59028e-15 5.67412 -2.36198 0.530356 -75.808 -4.38692 -5.33418 -2.62878 -3.42545 3.14601 29.7498 -1.82753 -90.2266
-27.3694 50.7603 82.3245 88.3852 -24.006 -179.882 53.2821 -6.35e-05 8.19533 -90 -81.2558 -180 0 0 0 -89.9999 -4.1675e-14 -90 10.4409 -1.622 1.78e-05 4.88513 -0.71806 -6.54719 8.8514 -0.0089989 -3.55271e-15 -8.78366 2.95704 -4.8766 11.3035 -0.0087814 -1.77636e-15 -3.22127 2.50463 -3.34794 11.0297 -0.0113029 1.77636e-15 2.85376 1.40886 -5.79377 14.948 -3.19349 8.6e-06 -12.2169 9.44122 -5.91927 5.49578 -0.0042877 0 -2.36178 1.27401 0.737669 5.52657 -0.0048637 -7.10543e-15 2.40783 5.73837 1.13822 6.10934 -2.13163e-14 0 59.511 -8.48885 14.2513 28.6688 -7.10543e-15 3.55271e-15 3.93114e-32 1.19271e-15 -1.88845e-15 0.607494 2.35752 -7.6e-06 -156.427 -0.000147608 180 10.4683 2.1257 3.51896 -166.263 12.603 -97.4721 7.34534 0 1.9e-06 9.95629 -79.7147 102.819 23.3863 -1.9e-06 1e-06 -1.86202 -0.573533 -1.26102 21.504 7.10543e-15 3.55271e-15 -1.91406 0.360454 5.89952 1.59262 6.21256 -0.0138378 -3.16174 19.2934 -6.75068 23.3657 0 1e-06 3.97252e-31 -9.54166e-15 2.38542e-15 4.20345 4.44573 12.7354 172.377 0.21838 -87.1877 10.4683 2.12572 -3.51895 -172.564 7.79452 106.445 7.34534 0 -1.9e-06 0.847438 82.0025 -88.7056 23.3863 1.9e-06 0 -69.2169 -1.59028e-15 -1.11319e-14 21.504 3.8e-06 1e-06 -16.6957 19.7398 17.984 1.59262 6.21257 0.0138388 -11.3005 -7.31076 -1.84723 23.3657 0 1e-06 180 1.52567e-13 7.95139e-15 4.20337 4.4457 -12.7351 172.377 -0.218352 87.1876 -4.78895 3.85983 0.86083 135.004 4.28345 9.41925 4.22117 3.815e-05 -5.7e-06 -17.4211 14.8841 -20.8619 4.97505 3.8e-06 -6.7e-06 -6.66124 21.5185 -2.80481 4.7171 -1.145e-05 2.86e-05 1.59028e-15 0 3.18055e-15 9.71734 -4.2e-05 -5.72e-05 6.75868e-15 3.18055e-15 -0 8.26175 8.01e-05 5.7e-06 6.36111e-15 3.18055e-15 3.18055e-15 9.75986 -6.48e-05 2.86e-05 -1.59028e-15 0 1.59028e-15 11.153 2.67e-05 -2.1e-05 1.19271e-15 3.18055e-15 -1.59028e-15 10.3039 1.14e-05 4.2e-05 2.38542e-15 0 1.59028e-15 -11.9878 -1.78568 10.19 170.606 3.62573 1.11034 8.44238 1.53e-05 4.2e-05 -1.59028e-15 0 -9.54166e-15 9.95005 7.6e-06 -2.86e-05 -0 3.97569e-16 -0 9.43418 -1.42109e-14 -4.58e-05 7.95139e-16 0 3.18055e-15 9.71733 6.87e-05 0.0001106 7.95139e-16 -7.95139e-16 3.18055e-15 8.26175 -2.29e-05 -4.77e-05 -0 -3.97569e-16 -0 9.75994 2.86e-05 3.05e-05 7.95139e-16 -1.19271e-15 3.18055e-15 11.1529 -7.25e-05 -5.91e-05 -2.20695e-32 3.97569e-16 3.18055e-15 10.3039 -7.6e-06 0 -2.38542e-15 0 -0 -1.14e-05 1.53e-05 9.94222 -107.177 24.9044 -172.45 25.9795 1e-06 -1.42109e-14 -47.0345 -0.101013 -1.2065 21.2087 1.9e-06 -1e-06 93.004 7.99728 -12.3026 10.4341 -1.9e-06 1e-06 -19.0431 -3.14577 4.12645 5.66763 6.59832 7.10543e-15 -165.666 -4.90845 -177.797 8.62785 7.10543e-15 0 -180 2.46493e-14 1.59028e-15 5.67414 -2.36194 -0.530567 -75.8081 4.38708 5.33411 -2.62874 -3.42539 -3.14618 29.7499 1.82752 90.2264 1.53e-05 -1.53e-05 -9.94222 -93.6705 -14.2511 168.3 25.9795 0 1e-06 -66.0088 -1.3959 2.19061 21.2087 0 1.9e-06 74.27 -17.8772 24.6874 10.4341 -1.9e-06 -1e-06 -7.69947 -4.56697 -8.10176 5.66763 6.59831 0 83.6594 -1.52096 -0.0506958 8.62785 0 3.55271e-15 7.95139e-16 -1.09332e-15 -0 5.67412 -2.36198 0.530355 -75.808 -4.38692 -5.33418 -2.62878 -3.42545 3.14601 29.7498 -1.82753 -90.2266
